<svg width="50" height="50" viewBox="0 0 50 50" fill="none" xmlns="http://www.w3.org/2000/svg">
<path d="M48.1103 7.59631C47.8451 10.762 47.7082 13.9358 46.0175 16.8107C45.2435 18.1268 44.7586 19.6131 44.1414 21.0217C43.9902 21.3671 44.0101 21.7033 44.2646 21.9807C46.4784 24.3932 47.5079 27.4332 48.7407 30.3695C49.387 31.9083 49.5025 33.576 49.9649 35.1588C50.0752 35.5374 49.9261 35.8531 49.5086 35.9359C47.4854 36.337 45.6349 37.2387 43.7051 37.9121C40.8011 38.9258 37.8796 39.9134 35.1064 41.2397C32.1328 42.6616 29.0729 43.9241 26.2711 45.6893C24.8507 46.5845 24.7582 46.6136 23.4319 45.5693C22.522 44.853 21.469 44.411 20.4492 43.9144C16.8942 42.1814 13.3617 40.3768 9.60749 39.1108C6.59001 38.0925 3.68748 36.7432 0.587232 35.9671C-0.0176951 35.8158 -0.0631668 35.4398 0.0477023 34.9289C0.573948 32.5041 1.20749 30.115 2.23188 27.8414C3.15613 25.7896 4.06352 23.7331 5.60649 22.0435C5.94421 21.6736 5.91866 21.2669 5.71736 20.8536C4.80895 18.9862 4.086 17.0381 3.16073 15.1742C2.22268 13.2838 2.05919 11.1804 1.97386 9.09637C1.91204 7.5866 1.9754 6.08042 2.2564 4.58445C2.39741 3.83442 2.77447 3.58407 3.50662 3.67757C5.33059 3.91004 6.94918 4.66313 8.47734 5.62519C10.5721 6.94336 12.6526 8.28554 14.7162 9.65225C15.7109 10.3108 16.4906 11.2545 17.5507 11.8405C17.8649 12.0142 18.1413 12.1486 18.5092 12.0459C21.541 11.2013 24.6356 11.1007 27.741 11.3955C28.9774 11.513 30.2516 11.5048 31.4298 12.0306C31.7619 12.1787 32.1032 12.0689 32.4016 11.8645C32.7071 11.655 33.0443 11.4793 33.312 11.2294C35.6454 9.05447 38.4938 7.62799 41.1137 5.87298C42.6026 4.87567 44.2334 4.09141 46.0226 3.74654C47.326 3.49517 47.5309 3.67961 47.8318 4.95538C48.0377 5.827 48.0168 6.70834 48.1103 7.59631ZM41.5189 9.22001C40.0986 9.0044 38.88 9.43919 37.7943 10.344C37.4893 10.5985 37.1633 10.8432 36.8113 11.0225C35.3894 11.747 34.295 12.683 34.3982 14.4702C34.4028 14.5494 34.342 14.6306 34.3242 14.7139C33.9175 16.6304 33.216 18.4758 32.9641 20.4311C32.7786 21.8668 33.0223 22.04 34.4166 21.5244C35.3966 21.1627 36.354 20.6814 37.4571 20.7805C37.944 20.8245 38.319 20.9839 38.3272 21.5158C38.3599 23.704 37.6324 25.7084 36.001 27.0751C34.7968 28.0841 33.2773 28.8352 31.6766 29.2286C30.8581 29.4299 30.4795 29.9571 30.2414 30.7378C29.1884 34.1921 28.5779 37.7675 27.3552 41.1738C27.2689 41.415 27.1601 41.671 27.3808 41.8937C27.5938 42.1083 27.8728 42.0756 28.0981 41.9525C29.1516 41.3787 30.3349 41.133 31.3992 40.5689C34.2976 39.0336 37.3902 37.9367 40.4572 36.8086C42.5642 36.0335 44.6876 35.2937 46.8079 34.5498C47.6259 34.2632 47.8047 33.7855 47.747 32.9971C47.6499 31.6764 47.0103 30.5743 46.508 29.3997C45.3738 26.7481 44.2319 24.1199 42.0462 22.1166C41.6579 21.761 41.6691 21.3288 41.9133 20.8694C42.7538 19.2882 43.5462 17.6803 44.4214 16.1189C45.2225 14.6894 45.2369 13.2532 44.6784 11.7634C44.6084 11.5769 44.5323 11.3919 44.4802 11.2003C43.9989 9.42438 43.9917 9.41773 42.1136 9.27314C41.9154 9.25833 41.7171 9.23789 41.5189 9.22001ZM8.56777 9.21899C8.05634 9.24709 7.54338 9.25935 7.03348 9.3084C6.45563 9.36409 5.9391 9.6129 5.79195 10.1979C5.52883 11.2443 4.99185 12.2048 4.88967 13.3038C4.8161 14.0967 4.90347 14.8376 5.26673 15.5426C6.15266 17.2629 7.00538 19.002 7.95007 20.6896C8.3307 21.3696 8.22801 21.7855 7.72271 22.3297C6.28805 23.8752 4.8769 25.4488 4.28474 27.5604C4.16315 27.9937 3.9409 28.4004 3.75288 28.8137C3.14182 30.1559 2.34326 31.4214 2.17057 32.9373C2.08269 33.7098 2.23954 34.2509 3.07234 34.5207C4.18154 34.8793 5.25396 35.3494 6.35601 35.7315C9.77149 36.9148 13.1773 38.1226 16.4844 39.5905C18.2257 40.363 19.9689 41.1304 21.7106 41.9009C22.0029 42.0301 22.3125 42.1696 22.593 41.929C22.9118 41.6551 22.664 41.3675 22.5644 41.0768C22.3242 40.3773 22.0821 39.6763 21.89 38.9631C21.142 36.1878 20.4052 33.4089 19.6818 30.627C19.4907 29.8928 19.0799 29.4253 18.3335 29.2475C16.7266 28.8648 15.3947 27.8976 13.9539 27.1629C13.5932 26.979 13.3198 26.6714 13.1221 26.3209C12.5064 25.2281 11.8959 24.1189 11.6833 22.8707C11.385 21.1188 11.5239 20.5006 13.6821 20.8822C13.8762 20.9165 14.0627 20.9992 14.2497 21.0677C14.8372 21.2833 15.4176 21.5209 16.0118 21.7166C16.7966 21.9751 17.1778 21.6936 17.1216 20.8776C17.0883 20.3984 16.9872 19.9207 16.8835 19.4501C16.5228 17.8116 15.901 16.2456 15.6302 14.5754C15.4365 13.3835 15.3671 12.0459 13.9063 11.491C13.4404 11.3137 13.0439 10.9484 12.6219 10.6603C11.3962 9.82187 10.2257 8.83682 8.56777 9.21899ZM32.8144 15.4971C32.8854 14.6991 32.4946 14.1483 31.7215 13.8167C30.0948 13.1188 28.4568 12.5369 26.6492 12.4398C23.7977 12.287 21.0229 12.4393 18.4029 13.7314C17.259 14.296 16.9305 14.9571 17.238 16.2135C17.5288 17.4003 17.7582 18.603 18.0565 19.7878C18.4152 21.2113 18.5577 22.7088 19.6578 23.8639C20.9059 25.175 21.8174 26.722 22.5358 28.3794C22.9511 29.3374 22.8581 29.4902 21.8235 29.601C21.2012 29.668 20.7327 29.8596 20.9601 30.6167C21.7213 33.1504 22.479 35.6856 23.2751 38.208C23.5203 38.9846 24.1574 39.4403 24.9473 39.4658C25.7132 39.4904 26.2818 39.0193 26.6159 38.328C26.7636 38.023 26.8489 37.6863 26.948 37.3593C27.5749 35.2886 28.1783 33.2102 28.8298 31.1476C29.2032 29.9663 29.05 29.6639 27.8013 29.5821C27.1974 29.5428 27.0405 29.319 27.2725 28.7672C28.0613 26.8906 29.0305 25.1305 30.4734 23.6637C30.9214 23.2084 31.2091 22.6561 31.3619 22.0323C31.7134 20.5987 31.9172 19.1339 32.3679 17.7186C32.5891 17.0253 32.819 16.3054 32.8144 15.4971ZM4.42116 6.11056C4.01294 6.10085 3.77791 6.29603 3.76054 6.65775C3.69259 8.07606 3.61493 9.49948 3.82543 10.9091C3.88265 11.2918 3.91637 11.8885 4.46919 11.8814C5.09659 11.8737 5.00003 11.2591 5.09097 10.836C5.13287 10.6414 5.17987 10.4467 5.1998 10.2495C5.27082 9.55262 5.66065 9.18782 6.34374 9.08717C6.84904 9.01309 7.34923 8.90682 7.85197 8.81638C8.08853 8.77398 8.30669 8.69427 8.34501 8.424C8.37873 8.18744 8.19378 8.06738 8.02006 7.9703C7.42484 7.63821 6.83933 7.2821 6.22112 6.99905C5.60393 6.716 5.08791 6.22552 4.42116 6.11056ZM46.2035 8.775C46.2035 8.15168 46.2398 7.52529 46.1943 6.90504C46.1396 6.15961 45.7524 5.9113 45.1153 6.23318C44.1047 6.7441 43.1201 7.30611 42.1356 7.86659C41.9036 7.99891 41.5797 8.14299 41.6798 8.49961C41.7759 8.84142 42.1172 8.79084 42.39 8.84346C44.5144 9.25577 44.6212 9.11476 44.9053 11.1354C44.9553 11.4915 45.0161 11.934 45.526 11.8952C46.0073 11.8584 46.0308 11.4277 46.0906 11.0644C46.2158 10.3067 46.2311 9.54189 46.2035 8.775Z" fill="#F6F6F6"/>
</svg>
