<svg width="50" height="50" viewBox="0 0 50 50" fill="none" xmlns="http://www.w3.org/2000/svg">
<g clip-path="url(#clip0_630_1822)">
<path d="M21.6748 17.8416C24.8652 17.8416 28.0567 17.8427 31.2471 17.8416C32.0366 17.8416 32.0366 17.8416 32.0366 17.0274C32.0366 13.4009 32.0366 9.77343 32.0366 6.14699C32.0366 5.97237 32.0377 5.79774 32.0388 5.62419C32.0399 5.30922 32.1031 5.02532 32.447 4.91175C32.7555 4.80998 32.9815 4.95032 33.183 5.1753C34.0775 6.17592 35.0385 7.12404 35.8538 8.18573C36.6433 9.2142 37.4147 9.76915 38.8363 9.37811C40.6447 8.87994 42.5078 9.1917 44.3205 9.59987C44.7479 9.69629 45.005 9.59773 45.2696 9.28383C46.3935 7.95218 47.5312 6.6323 48.6658 5.30922C48.7568 5.20315 48.8543 5.10352 48.955 5.0071C49.1489 4.82176 49.375 4.76177 49.6278 4.86783C49.8614 4.96532 49.9696 5.15387 49.9846 5.40028C49.991 5.5042 49.9942 5.60919 49.9931 5.71418C49.991 7.94575 50.0178 10.1784 49.9781 12.41C49.8946 17.0874 48.5308 21.3191 45.5289 24.9734C44.9333 25.6987 44.3408 26.4315 43.8555 27.2446C43.412 27.9892 43.2481 28.7777 43.2502 29.639C43.2641 35.7413 43.2577 41.8446 43.2577 47.9469C43.2577 48.4869 43.2577 49.0257 43.1945 49.5657C43.1484 49.9567 42.9631 50.1195 42.5828 50.1153C42.0428 50.1088 41.5018 50.1174 40.9608 50.1142C39.9387 50.1088 39.6184 49.8464 39.3774 48.834C39.131 47.798 39.0013 46.7427 38.831 45.6939C38.1925 41.7568 37.555 37.8197 36.9197 33.8825C36.8651 33.5429 36.7537 33.3962 36.338 33.4412C32.5691 33.8472 28.7937 33.8568 25.013 33.604C24.0403 33.5386 23.0654 33.5012 22.0958 33.3876C21.8237 33.3554 21.6319 33.499 21.4423 33.6586C18.9258 35.7809 16.0878 37.3568 13.0527 38.5985C12.2139 38.9413 11.3868 39.3142 10.548 39.6559C10.2084 39.7941 10.0284 40.0287 9.93626 40.3748C9.20026 43.172 8.45783 45.9671 7.71433 48.7622C7.64255 49.0311 7.5697 49.3011 7.47329 49.5614C7.3458 49.9064 7.08546 50.097 6.71479 50.1013C6.03449 50.1088 5.3542 50.126 4.67498 50.0971C4.05897 50.0703 3.804 49.766 3.80721 48.9711C3.81042 47.979 3.87363 46.987 3.93255 45.996C4.04826 44.0494 4.17896 42.1028 4.30538 40.1562C4.37287 39.1138 4.41358 38.0671 4.52393 37.029C4.66213 35.7295 5.39706 34.6914 6.1427 33.679C7.62006 31.6745 8.7578 29.5222 9.16062 27.0314C9.32239 26.0329 9.43167 25.0323 9.45095 24.0188C9.45952 23.5839 9.32454 23.3653 8.89601 23.2261C6.82192 22.5522 4.98567 21.4691 3.47938 19.8803C1.26388 17.5448 0.108994 14.7583 0.00721766 11.5347C-0.0752744 8.92601 0.545021 6.52624 2.09094 4.39645C3.72686 2.14345 5.9445 0.79465 8.66031 0.279342C10.8469 -0.136332 13.0335 -0.138475 15.1622 0.618952C17.0263 1.2821 18.5915 2.39307 19.8428 3.92721C20.7031 4.98139 20.6195 6.31305 19.681 6.98905C19.1218 7.39187 18.509 7.39401 17.8834 7.19582C17.2695 7.00191 16.7917 6.59374 16.3256 6.16735C14.0694 4.10398 10.7012 3.62723 8.00252 5.06388C6.04307 6.10735 4.98138 7.81076 4.77569 10.0134C4.39644 14.0684 7.21831 17.1699 11.1136 17.7398C11.6525 17.818 12.1882 17.8394 12.7281 17.8405C15.7118 17.8427 18.6933 17.8416 21.6748 17.8416ZM37.599 17.8394C38.5728 17.8427 39.3602 17.0563 39.3538 16.0878C39.3474 15.235 38.5364 14.4401 37.6643 14.4294C36.699 14.4176 35.8623 15.2265 35.8773 16.1575C35.8902 17.0488 36.6969 17.8362 37.599 17.8394ZM44.4479 14.4294C43.5652 14.4283 42.7478 15.2361 42.7338 16.1221C42.7199 17.0649 43.4966 17.8394 44.4512 17.8373C45.3918 17.8352 46.1578 17.0884 46.1599 16.1692C46.1642 15.2361 45.3704 14.4305 44.4479 14.4294Z" fill="#F6F6F6"/>
<path d="M30.4697 50.1134C30.2082 50.1134 29.9468 50.1166 29.6854 50.1123C28.9869 50.1037 28.8595 49.9848 28.7373 49.2799C28.6248 48.6317 28.748 47.9911 28.7995 47.3525C29.0512 44.2114 29.3265 41.0724 29.5933 37.9324C29.6394 37.3946 29.6983 36.8578 29.7251 36.319C29.7401 36.0147 29.8793 35.8776 30.1675 35.8508C31.5892 35.719 33.0108 35.584 34.4325 35.4555C34.8407 35.4191 34.771 35.688 34.7271 35.9408C34.4357 37.6228 34.1497 39.3048 33.8572 40.9867C33.4437 43.3715 33.0312 45.7563 32.6091 48.14C32.5362 48.5503 32.4163 48.9531 32.3252 49.3602C32.2031 49.9077 31.8645 50.1487 31.3074 50.1166C31.0289 50.1005 30.7493 50.1134 30.4697 50.1134Z" fill="#F6F6F6"/>
<path d="M16.5368 50.1112C14.8999 50.1176 14.9106 50.1154 14.5785 48.5449C14.0503 46.0423 13.5136 43.5407 12.9608 41.0435C12.8772 40.6653 12.9822 40.5057 13.3347 40.3985C14.6845 39.9893 16.0312 39.5704 17.3714 39.1322C17.741 39.0112 17.8771 39.0851 17.8921 39.4783C17.9285 40.4339 18.0013 41.3884 18.0399 42.3451C18.1267 44.5188 18.2017 46.6936 18.2788 48.8674C18.2842 49.0238 18.281 49.1823 18.2627 49.3366C18.1942 49.9237 18.0121 50.0929 17.425 50.1101C17.1293 50.1187 16.8325 50.1112 16.5368 50.1112Z" fill="#F6F6F6"/>
</g>
<defs>
<clipPath id="clip0_630_1822">
<rect width="50" height="50" fill="white"/>
</clipPath>
</defs>
</svg>
