<svg width="50" height="50" viewBox="0 0 50 50" fill="none" xmlns="http://www.w3.org/2000/svg">
<g clip-path="url(#clip0_630_1810)">
<path d="M42.0912 23.6607C42.2544 23.7759 42.4626 23.9067 42.652 24.0603C42.8627 24.2311 43.0011 24.2371 43.1744 23.9881C44.0327 22.7554 44.9062 21.5333 45.7828 20.3132C45.9192 20.1233 45.8969 20.0055 45.711 19.8767C45.2624 19.565 44.8138 19.2523 44.3798 18.9209C44.1499 18.7456 44.0211 18.7804 43.8564 19.0148C42.5899 20.8119 41.3016 22.5937 40.0451 24.3978C39.8178 24.7242 39.6182 24.7545 39.2676 24.6388C35.9363 23.5344 32.6004 22.4452 29.2636 21.358C28.9928 21.2696 28.7872 21.1296 28.6093 20.9023C26.3374 17.9984 24.0574 15.101 21.779 12.2022C21.3895 11.7065 21.397 11.7126 21.7679 11.1938C23.0147 9.44929 24.2514 7.69774 25.5018 5.9563C25.6832 5.7037 25.6362 5.56881 25.3932 5.39906C24.2519 4.60084 23.1274 3.77887 21.9831 2.98469C21.7017 2.78917 21.6709 2.61993 21.8684 2.35722C22.1968 1.92073 22.5201 1.47968 22.8257 1.02702C22.9829 0.794626 23.1147 0.811297 23.3239 0.960838C25.7004 2.66237 28.0814 4.35733 30.4629 6.05229C33.6791 8.34087 36.8977 10.6259 40.1123 12.9165C43.3265 15.2066 46.535 17.5048 49.7527 19.7903C50.0214 19.9813 50.0871 20.1389 49.8779 20.4132C49.5551 20.8366 49.25 21.2741 48.9494 21.7136C48.7978 21.9354 48.6604 21.989 48.4159 21.8197C47.4833 21.1751 47.4813 21.1847 46.8371 22.0976C46.1445 23.0792 45.4513 24.0608 44.743 25.0318C44.5556 25.2885 44.5511 25.4592 44.8411 25.6209C45.0553 25.7401 45.1634 25.87 44.9674 26.1362C44.206 27.1693 43.4629 28.2166 42.7268 29.268C42.5565 29.511 42.4226 29.5554 42.17 29.3695C41.3238 28.7456 40.466 28.1373 39.6016 27.5376C39.3611 27.3709 39.354 27.2209 39.5132 27.0001C40.2639 25.9589 41.0081 24.9121 41.7553 23.8683C41.827 23.7693 41.8891 23.6551 42.0912 23.6607Z" fill="#F6F6F6"/>
<path d="M0 27.1237C0 23.1215 0 19.1193 0 15.117C0 14.5204 0.0015156 14.5179 0.58048 14.5179C7.56039 14.5173 14.5408 14.5204 21.5207 14.5098C21.8941 14.5093 22.1325 14.6199 22.3199 14.9402C22.5746 15.3762 22.8605 15.794 23.1444 16.2118C23.3283 16.4816 23.2334 16.5791 22.9459 16.5846C22.8095 16.5872 22.6726 16.5867 22.5362 16.5867C15.9114 16.5867 9.28617 16.5867 2.66142 16.5872C2.01678 16.5872 2.01627 16.5882 2.01627 17.2414C2.01627 23.8389 2.01627 30.4369 2.01627 37.0343C2.01627 37.6583 2.01728 37.6593 2.65384 37.6593C7.72155 37.6598 12.7893 37.6593 17.857 37.6608C18.0889 37.6608 18.3207 37.6769 18.5526 37.6855C18.6203 37.6881 18.6976 37.685 18.7284 37.7588C18.7618 37.8386 18.6976 37.8876 18.6431 37.9245C17.7842 38.5075 16.9259 39.09 16.063 39.6669C15.9331 39.7538 15.771 39.7245 15.6219 39.7245C10.5952 39.725 5.56837 39.7255 0.541579 39.7245C0.0030312 39.7245 0.000505216 39.721 0.000505216 39.1713C1.15745e-08 35.1555 0.000505205 31.1396 0 27.1237Z" fill="#F6F6F6"/>
<path d="M28.2198 33.7905C30.6038 33.8178 32.5954 35.6815 32.6403 38.1909C32.6833 40.5724 30.6534 42.6109 28.2072 42.6225C25.8453 42.6336 23.778 40.5997 23.821 38.1792C23.8654 35.7234 25.7352 33.8683 28.2198 33.7905Z" fill="#F6F6F6"/>
<path d="M31.7529 49.1684C31.5968 49.1431 31.5276 49.0163 31.4458 48.9132C30.7334 48.016 30.0246 47.1152 29.3143 46.2159C29.0183 45.8416 28.7268 45.4627 28.4201 45.0969C28.2291 44.8696 28.1948 44.7044 28.4646 44.4932C30.4303 42.9538 32.388 41.4049 34.3416 39.8504C34.5897 39.6528 34.7134 39.7589 34.8695 39.958C35.9057 41.2776 36.9459 42.5941 37.9927 43.9056C38.2044 44.1709 38.0912 44.2608 37.823 44.2957C36.5251 44.4639 35.2287 44.6448 33.9283 44.7877C33.601 44.8236 33.4489 44.964 33.3428 45.2495C32.9048 46.4256 32.4557 47.5977 32.006 48.7692C31.9495 48.9158 31.9267 49.0926 31.7529 49.1684Z" fill="#F6F6F6"/>
<path d="M22.1537 48.081C21.9739 48.0603 21.9921 47.933 21.9784 47.8309C21.8132 46.574 21.6334 45.319 21.4944 44.0591C21.4464 43.6261 21.2878 43.3897 20.8604 43.2391C19.6772 42.8218 18.5112 42.355 17.3422 41.8993C16.9769 41.7569 16.9734 41.6957 17.2805 41.4527C18.5536 40.4453 19.8333 39.4465 21.0984 38.4296C21.3878 38.1967 21.5727 38.176 21.8213 38.4942C23.2899 40.3761 24.7778 42.2429 26.2545 44.1187C26.6101 44.5703 26.6066 44.5835 26.1605 44.9366C24.899 45.9364 23.633 46.9307 22.3684 47.9264C22.2947 47.9835 22.2169 48.0355 22.1537 48.081Z" fill="#F6F6F6"/>
<path d="M20.1236 24.5062C23.3186 24.5062 26.5135 24.5143 29.7084 24.4966C30.1312 24.4941 30.2712 24.6184 30.2237 25.0301C30.1909 25.313 30.2126 25.603 30.2156 25.8895C30.2181 26.1269 30.1014 26.2421 29.869 26.2482C29.7599 26.2512 29.6508 26.2542 29.5417 26.2542C23.2473 26.2542 16.953 26.2547 10.6586 26.2537C9.94983 26.2537 9.94478 26.2517 9.95034 25.5535C9.95994 24.3289 9.81696 24.5118 10.99 24.5087C14.0339 24.5012 17.0788 24.5067 20.1236 24.5062Z" fill="#F6F6F6"/>
<path d="M20.0787 32.827C16.909 32.827 13.7399 32.8275 10.5702 32.8265C9.97053 32.8265 9.9478 32.8068 9.95083 32.2026C9.9579 30.9158 9.81847 31.0861 11.0582 31.0851C17.2197 31.0805 23.3812 31.083 29.5422 31.083C30.2176 31.083 30.2176 31.0836 30.2186 31.7615C30.2186 31.9252 30.2181 32.0894 30.2186 32.2531C30.2207 32.825 30.2207 32.826 29.6281 32.826C26.4453 32.8275 23.262 32.827 20.0787 32.827Z" fill="#F6F6F6"/>
<path d="M20.1184 27.8825C23.2861 27.8825 26.4537 27.882 29.6213 27.883C30.2155 27.883 30.2155 27.8866 30.2185 28.4746C30.2236 29.627 30.2236 29.627 29.0742 29.627C22.9299 29.627 16.7856 29.627 10.6413 29.627C9.95373 29.627 9.94817 29.6245 9.95069 28.951C9.95524 27.7264 9.83601 27.8866 11.0253 27.884C14.0565 27.8785 17.0877 27.8825 20.1184 27.8825Z" fill="#F6F6F6"/>
<path d="M38.8245 32.6654C38.8245 34.8367 38.8255 37.0086 38.824 39.18C38.8235 39.7175 38.8154 39.6978 38.2698 39.7317C37.7984 39.761 37.4387 39.6544 37.1411 39.2487C36.8279 38.8218 36.4369 38.4515 36.0827 38.0539C36.012 37.9746 35.8999 37.8983 35.9312 37.7801C35.9686 37.6386 36.1166 37.6735 36.2126 37.6811C36.6799 37.7169 36.7688 37.48 36.7673 37.0596C36.7537 33.2767 36.7592 29.4932 36.7592 25.7097C36.7592 25.6006 36.7627 25.491 36.7592 25.3818C36.7491 25.0595 36.8461 24.9176 37.1972 25.0641C37.5872 25.2267 37.9869 25.3738 38.3935 25.4879C38.7305 25.5824 38.8341 25.7673 38.8316 26.1088C38.8179 28.2949 38.8245 30.4804 38.8245 32.6654Z" fill="#F6F6F6"/>
<path d="M20.1087 22.325C18.3476 22.325 16.5864 22.326 14.8253 22.3245C14.2918 22.324 14.2665 22.3033 14.2721 21.7703C14.2852 20.5345 14.1023 20.6856 15.3588 20.6836C18.6623 20.678 21.9664 20.6816 25.2699 20.6821C25.9287 20.6821 25.9393 20.6917 25.9378 21.3403C25.9358 22.4286 26.0312 22.323 24.941 22.325C23.3309 22.327 21.7198 22.325 20.1087 22.325Z" fill="#F6F6F6"/>
</g>
<defs>
<clipPath id="clip0_630_1810">
<rect width="50" height="50" fill="white"/>
</clipPath>
</defs>
</svg>
