<svg width="50" height="50" viewBox="0 0 50 50" fill="none" xmlns="http://www.w3.org/2000/svg">
<path d="M5.46344 32.5472C5.89268 32.5744 6.40352 32.4962 6.90585 32.6288C7.86888 32.8821 8.63641 33.4108 9.15745 34.2608C9.31044 34.5098 9.41414 34.509 9.63599 34.3526C11.4473 33.0742 13.4328 32.1698 15.5994 31.6981C17.7839 31.223 19.9794 31.1864 22.1885 31.5816C23.7048 31.8528 25.1651 32.3526 26.6789 32.6263C28.3236 32.9238 29.9913 33.0479 31.6428 33.2859C32.769 33.4482 33.9003 33.602 34.9619 34.0551C35.3402 34.2166 35.7159 34.3866 36.0338 34.645C36.2429 34.815 36.3908 34.7827 36.5846 34.6365C37.3869 34.0287 38.2191 33.4618 39.069 32.9221C40.6951 31.8885 42.344 30.8932 44.1723 30.2506C45.1149 29.9191 46.0754 29.6445 47.0945 29.8536C48.582 30.1588 49.29 31.3573 48.854 32.8158C48.571 33.7627 47.9887 34.5294 47.3614 35.2621C45.7227 37.1771 43.7422 38.7036 41.7099 40.163C39.1642 41.9922 36.4809 43.6054 33.7227 45.0921C32.0576 45.9888 30.3721 46.8464 28.6415 47.6114C27.6555 48.0474 26.6109 48.1086 25.5484 48.0177C23.5314 47.846 21.6045 47.2298 19.6351 46.8269C18.2344 46.5413 16.8243 46.3016 15.3971 46.2803C13.4685 46.2514 11.5858 46.5642 9.78048 47.2748C9.61813 47.3386 9.54419 47.4567 9.48214 47.6054C8.82936 49.1728 7.64448 49.9752 5.95813 49.9794C5.32829 49.9811 4.69251 50.044 4.06862 49.9395C2.25392 49.6352 1.0121 48.1579 1.0053 46.3126C0.998501 44.4979 1.0036 42.6832 1.0036 40.8685C1.0036 39.3301 1.01635 37.7924 1.0002 36.254C0.978102 34.0636 2.77666 32.4673 4.71971 32.5455C4.94325 32.5549 5.1651 32.5472 5.46344 32.5472ZM9.72523 40.9212C9.72523 42.2489 9.72523 43.5765 9.72523 44.9042C9.72523 45.3573 9.72948 45.3674 10.1604 45.2306C11.4005 44.8354 12.6721 44.5957 13.9675 44.5192C16.0907 44.3951 18.1808 44.6594 20.2556 45.1125C21.9505 45.483 23.6207 45.9777 25.3478 46.1894C26.3585 46.3135 27.347 46.2659 28.2939 45.7941C29.6003 45.1422 30.9203 44.5183 32.2123 43.8375C35.3087 42.2055 38.3007 40.4053 41.1285 38.339C42.8727 37.0649 44.554 35.7185 45.9853 34.0865C46.4035 33.6097 46.7792 33.104 47.035 32.5217C47.3164 31.8808 47.1379 31.6122 46.4367 31.5918C46.3814 31.5901 46.3262 31.5952 46.2709 31.6003C45.6266 31.6607 45.0129 31.8366 44.4163 32.0823C41.9318 33.1065 39.7329 34.611 37.5569 36.1554C37.3699 36.288 37.2985 36.4282 37.3274 36.6815C37.4651 37.8766 37.1532 38.9059 36.0958 39.5944C35.2892 40.1197 34.3678 40.2446 33.4303 40.2786C31.279 40.3551 29.1498 40.0381 27.0095 39.9199C25.3589 39.829 23.7159 39.8273 22.0984 40.2472C21.5586 40.3874 21.0614 40.6246 20.554 40.8456C20.0924 41.047 19.5824 40.8634 19.3827 40.4588C19.1557 40.0007 19.2858 39.5281 19.7354 39.2527C19.942 39.1261 20.1664 39.0275 20.3891 38.9289C21.7159 38.3381 23.1294 38.1452 24.5591 38.084C26.4639 38.0024 28.3576 38.2081 30.2539 38.3568C31.3767 38.4444 32.5004 38.5727 33.6292 38.4605C34.0244 38.4214 34.4231 38.3883 34.7988 38.2378C35.5731 37.9284 35.8043 37.1082 35.2968 36.4435C35.0707 36.1469 34.7682 35.9454 34.4282 35.7958C33.2246 35.2646 31.9326 35.1303 30.65 34.9765C28.4214 34.7096 26.1902 34.4758 24.021 33.8545C21.5569 33.1482 19.0639 32.8609 16.514 33.3573C14.0873 33.829 11.9114 34.8218 9.98703 36.373C9.79663 36.5268 9.71928 36.6926 9.72098 36.9374C9.73118 38.2659 9.72608 39.5935 9.72523 40.9212ZM2.81406 41.2646C2.81406 42.9136 2.81236 44.5625 2.81491 46.2115C2.81576 47.2969 3.42349 48.0117 4.49106 48.1758C5.02995 48.2582 5.57649 48.2531 6.11282 48.1936C7.20165 48.0721 7.90628 47.353 7.91053 46.3271C7.92583 42.9408 7.92328 39.5544 7.91053 36.1681C7.90713 35.2366 7.20504 34.4775 6.27942 34.3585C5.72948 34.288 5.17615 34.3007 4.62366 34.3483C3.51954 34.4427 2.81831 35.1839 2.81491 36.2854C2.81066 37.9446 2.81406 39.6046 2.81406 41.2646Z" fill="#F6F6F6"/>
<path d="M16.1446 21.507C16.148 20.9078 16.4217 19.8479 17.1637 18.9393C17.5275 18.4939 18.0239 18.2117 18.4812 17.8861C19.8743 16.8951 21.0328 15.6753 22.0621 14.3213C22.5262 13.711 23.0294 13.1339 23.7366 12.7905C24.8985 12.2261 26.1709 12.4845 27.1986 13.4909C27.7374 14.0187 28.1743 14.6341 28.6495 15.2164C29.5802 16.3562 30.6452 17.3515 31.8785 18.1471C33.2139 19.0081 33.7612 20.2644 33.836 21.7841C33.8896 22.8645 33.6975 23.8972 33.1748 24.8585C32.1828 26.6826 30.3171 27.2062 28.5228 26.1624C28.0264 25.8734 27.5462 25.5563 27.0209 25.3167C25.2887 24.527 23.6626 24.8024 22.0987 25.7782C21.5258 26.1352 20.9572 26.493 20.2738 26.6205C18.9436 26.8687 17.904 26.408 17.1195 25.3413C16.403 24.3664 16.1403 23.2495 16.1446 21.507ZM32.0324 22.1207C32.0715 21.0115 31.7119 20.0816 30.6554 19.5172C30.6172 19.4968 30.5849 19.4645 30.5483 19.439C29.0388 18.3825 27.7731 17.077 26.6452 15.6286C26.3605 15.2623 26.0783 14.8925 25.7128 14.5984C25.2224 14.2049 24.7183 14.2134 24.2406 14.6163C24.0103 14.8101 23.8114 15.0319 23.6303 15.2691C22.3137 16.9945 20.8339 18.5508 18.998 19.7382C18.686 19.9397 18.4191 20.1947 18.2738 20.5406C17.7536 21.7739 17.8156 22.9852 18.4982 24.136C18.9563 24.9087 19.5946 25.0617 20.4021 24.669C20.9104 24.4216 21.3617 24.0799 21.8692 23.8283C23.9576 22.7905 26.0409 22.788 28.1191 23.8385C28.6512 24.108 29.1493 24.4446 29.683 24.7072C30.397 25.0591 30.9963 24.8781 31.4408 24.2185C31.8624 23.5946 32.0502 22.9002 32.0324 22.1207Z" fill="#F6F6F6"/>
<path d="M25.2983 4.71323C25.2771 3.72556 25.487 2.57469 26.1016 1.51986C26.5852 0.691134 27.2754 0.140348 28.2494 0.0213515C29.4071 -0.119745 30.1967 0.44974 30.762 1.39577C31.3323 2.34944 31.5865 3.41532 31.8381 4.48289C32.0489 5.37452 32.0735 6.26699 31.7777 7.13482C31.3179 8.48204 30.4806 9.47906 29.0059 9.74596C27.8814 9.94995 26.9855 9.50711 26.3242 8.60443C25.527 7.51391 25.2941 6.25339 25.2983 4.71323ZM30.1764 5.75871C30.1611 4.95208 29.9171 4.19305 29.6774 3.43572C29.5278 2.96313 29.3689 2.48799 29.0442 2.09445C28.7756 1.76891 28.5418 1.71791 28.1764 1.92275C27.8653 2.097 27.6689 2.36899 27.5236 2.69113C27.2278 3.34732 27.1045 4.0358 27.0909 4.75148C27.0739 5.67031 27.1853 6.55939 27.6664 7.36687C28.0948 8.08595 28.7739 8.18285 29.3859 7.61846C29.9299 7.11782 30.1891 6.49734 30.1764 5.75871Z" fill="#F6F6F6"/>
<path d="M17.8006 6.31363C17.7624 5.21886 18.014 4.07224 18.6523 3.03696C19.2039 2.14279 19.9426 1.4934 21.0722 1.47215C21.8244 1.4577 22.4118 1.77559 22.8801 2.35273C23.5031 3.12196 23.7675 4.05184 24.0522 4.96897C24.2588 5.6328 24.4849 6.29068 24.569 6.99021C24.7577 8.56523 23.8933 10.1972 22.4738 10.8899C20.8495 11.6829 19.0883 10.9979 18.3276 9.2775C17.9579 8.44198 17.8083 7.6311 17.8006 6.31363ZM22.7866 7.34636C22.7832 7.31236 22.7798 7.22311 22.7637 7.13726C22.5563 6.07054 22.2086 5.04716 21.804 4.04249C21.7352 3.87079 21.6281 3.7093 21.5142 3.5614C21.26 3.23331 21.028 3.20356 20.6846 3.4322C20.3582 3.6498 20.1695 3.97449 20.0131 4.31788C19.5677 5.29451 19.5159 6.31873 19.6553 7.36675C19.725 7.88864 19.8644 8.38333 20.1432 8.83212C20.4696 9.3591 21.0034 9.53165 21.5788 9.30301C22.2826 9.02166 22.7892 8.22523 22.7866 7.34636Z" fill="#F6F6F6"/>
<path d="M18.386 13.3455C18.3792 13.756 18.3528 14.1623 18.2406 14.5609C17.6448 16.6833 15.3898 17.1126 14.006 16.5779C12.3316 15.9311 11.553 14.5737 11.1756 12.9162C10.975 12.034 11.0073 11.1619 11.2835 10.2983C11.6788 9.06328 12.5067 8.2524 13.7408 7.90816C14.454 7.70926 15.1722 7.82741 15.8088 8.24305C17.0098 9.02758 17.6601 10.2023 18.0961 11.5206C18.2908 12.1122 18.3885 12.7216 18.386 13.3455ZM15.1764 14.9647C15.9355 14.9621 16.3987 14.5762 16.5534 13.8419C16.6257 13.4985 16.6121 13.1602 16.5483 12.8219C16.3256 11.6413 15.8896 10.5762 14.8959 9.81976C14.6392 9.62426 14.3724 9.57922 14.0587 9.70246C13.5598 9.89796 13.2164 10.2405 13.054 10.7369C12.6086 12.1011 12.9486 13.3132 13.8581 14.3731C14.1888 14.7581 14.6375 14.9902 15.1764 14.9647Z" fill="#F6F6F6"/>
<path d="M38.9409 11.4619C38.8772 12.373 38.7242 13.4474 37.9668 14.3331C37.2605 15.1593 36.3561 15.45 35.2988 15.3505C33.4892 15.1805 32.2949 13.7432 31.9745 11.9702C31.745 10.7011 31.8716 9.46867 32.4709 8.29315C33.1781 6.90684 34.7947 6.05856 36.2142 6.38155C37.1262 6.58895 37.7084 7.20858 38.1394 7.98631C38.6732 8.95104 38.9426 10.1215 38.9409 11.4619ZM37.1398 11.2145C37.0914 10.3407 36.9469 9.50692 36.4904 8.75894C36.0824 8.09001 35.5121 7.94806 34.8296 8.3331C34.595 8.4657 34.3893 8.63229 34.2473 8.86349C33.4815 10.1113 33.4679 11.382 34.1402 12.6714C34.266 12.9128 34.4624 13.0921 34.6766 13.2502C35.5597 13.8996 36.5448 13.5928 36.9171 12.5677C37.0786 12.1223 37.0939 11.6599 37.1398 11.2145Z" fill="#F6F6F6"/>
</svg>
