<svg width="50" height="50" viewBox="0 0 50 50" fill="none" xmlns="http://www.w3.org/2000/svg">
<g clip-path="url(#clip0_630_1840)">
<path d="M24.9597 50C11.1685 50.0084 -0.0678162 38.7758 0.000308145 24.9083C0.0672267 11.2381 10.5873 1.22913 22.4427 0.127114C30.2427 -0.597531 37.0461 1.77381 42.628 7.29953C47.5167 12.1397 49.983 18.0723 49.9999 24.948C50.0331 38.8119 38.8287 49.991 24.9597 50ZM17.9839 10.7019C18.134 10.5454 18.2275 10.437 18.3318 10.3407C18.5175 10.1698 18.6525 10.1873 18.6887 10.4605C18.7152 10.6615 18.7465 10.8638 18.7484 11.0654C18.7544 12.0073 18.5096 12.9107 18.3059 13.8189C18.0123 15.1304 18.0888 16.3076 19.3313 17.1623C20.7963 18.1704 21.8314 19.5102 22.3384 21.2333C22.5507 21.9549 22.8853 22.5676 23.5279 23.0455C24.8922 24.0596 26.2716 25.0425 27.7793 25.8345C28.117 26.0121 28.3075 26.2902 28.3026 26.6687C28.2978 27.0557 28.12 27.3555 27.7595 27.5306C27.6316 27.5926 27.4827 27.6149 27.3869 27.7358C26.7346 28.5526 25.8459 29.0515 24.9422 29.5228C24.1965 29.9122 23.4351 30.245 22.5573 30.2125C21.7886 30.1842 21.029 30.0831 20.2778 29.9423C19.3892 29.7749 18.5464 29.7021 17.7205 30.2167C17.0953 30.6061 16.361 30.8276 15.8564 31.3994C14.8604 32.5285 13.8066 33.6082 12.8999 34.8138C12.4478 35.415 11.9612 35.9988 11.6345 36.6807C11.0509 37.8995 10.5813 39.1658 10.096 40.4261C10.0037 40.6651 10.0483 40.8107 10.2358 40.9829C12.2886 42.8631 14.6054 44.3142 17.2062 45.3157C20.8319 46.712 24.5661 47.0527 28.3955 46.4869C29.6543 46.3009 30.8787 45.9801 32.0832 45.5691C34.7341 44.6639 37.1039 43.279 39.2254 41.4583C39.384 41.3223 39.4135 41.2369 39.2315 41.1038C38.9421 40.8926 38.6672 40.6603 38.3796 40.446C37.6779 39.923 37.0901 39.2958 36.7085 38.5068C35.7427 36.5104 35.1458 34.4021 34.8317 32.2101C34.6925 31.2387 34.9023 31.4969 33.9425 31.196C33.0876 30.9281 32.2098 30.7259 31.4436 30.2227C30.6315 29.6895 30.1155 28.9931 30.1106 27.9886C30.11 27.8851 30.0769 27.8093 30.0184 27.728C29.6549 27.2255 29.691 27.0142 30.1685 26.6176C30.684 26.1896 31.0487 25.6744 31.2621 25.0178C31.5684 24.0771 32.0688 23.2556 33.0822 22.8926C33.3891 22.7831 33.5778 22.5917 33.5597 22.2264C33.55 22.0284 33.6151 21.8255 33.6567 21.6269C33.843 20.7386 34.2873 19.9206 34.3687 19.0016C34.388 18.7807 34.561 18.7325 34.7413 18.8445C34.8812 18.9318 35.0186 19.0383 35.1241 19.1641C35.3586 19.4445 35.572 19.7431 35.812 20.0566C35.8367 19.9658 35.8512 19.9086 35.8681 19.852C36.0791 19.134 36.3184 19.0503 36.8326 19.583C37.5464 20.3227 38.2331 21.0919 38.7407 21.9953C38.8456 22.1824 38.9674 22.3197 39.1555 22.4178C40.0122 22.8643 40.6717 23.5258 41.2475 24.292C41.9154 25.1809 42.4846 26.1397 43.205 26.9913C43.9115 27.8261 44.7718 28.3822 45.8636 28.5634C46.4255 28.6567 46.4653 28.6296 46.5473 28.0614C46.868 25.8315 46.859 23.601 46.4611 21.3862C45.8528 17.9989 44.6838 14.8415 42.4502 12.1542C41.6405 11.1797 40.8417 10.1933 39.9851 9.2604C39.0994 8.29682 38.0462 7.5168 36.949 6.80721C32.8796 4.17646 28.4286 2.98356 23.5779 3.2863C20.9169 3.45241 18.3794 4.08979 15.9607 5.19722C11.3759 7.29652 7.9594 10.6489 5.60218 15.0594C4.63819 16.8632 3.99914 18.8192 3.63622 20.8463C3.59522 21.0744 3.6109 21.3121 3.60065 21.5487C3.76583 21.5487 3.83757 21.4584 3.91715 21.394C5.89155 19.8093 8.01787 18.4575 10.2376 17.2423C12.2995 16.1138 14.0749 14.6357 15.479 12.7386C16.1898 11.778 16.9554 10.8547 17.5336 9.80088C17.5836 9.71 17.6415 9.59023 17.7717 9.62092C17.9055 9.65222 17.8838 9.78583 17.8959 9.88935C17.923 10.1403 17.9496 10.3877 17.9839 10.7019Z" fill="#F6F6F6"/>
</g>
<defs>
<clipPath id="clip0_630_1840">
<rect width="50" height="50" fill="white"/>
</clipPath>
</defs>
</svg>
