<svg width="27" height="27" viewBox="0 0 27 27" fill="none" xmlns="http://www.w3.org/2000/svg">
<g clip-path="url(#clip0_919_1587)">
<path d="M27 20.25C27 21.0456 26.6839 21.8087 26.1213 22.3713C25.5587 22.9339 24.7956 23.25 24 23.25H3C2.20435 23.25 1.44129 22.9339 0.87868 22.3713C0.316071 21.8087 0 21.0456 0 20.25V17.25H27V20.25Z" fill="#CE2028"/>
<path d="M0 9.75H27V17.25H0V9.75Z" fill="#22408C"/>
<path d="M24 3.75H3C2.20435 3.75 1.44129 4.06607 0.87868 4.62868C0.316071 5.19129 0 5.95435 0 6.75L0 9.75H27V6.75C27 5.95435 26.6839 5.19129 26.1213 4.62868C25.5587 4.06607 24.7956 3.75 24 3.75Z" fill="#EEEEEE"/>
</g>
<defs>
<clipPath id="clip0_919_1587">
<rect width="27" height="27" fill="white"/>
</clipPath>
</defs>
</svg>
