<svg width="60" height="47" viewBox="0 0 60 47" fill="none" xmlns="http://www.w3.org/2000/svg">
<path d="M52.4803 8.21434L30 26.8412L7.51971 8.21434M4.86738 2.04842C4.10691 2.04842 3.37758 2.38854 2.83984 2.99395C2.3021 3.59936 2 4.42047 2 5.27665V41.7718C2 42.628 2.3021 43.4491 2.83984 44.0545C3.37758 44.6599 4.10691 45 4.86738 45H55.1326C55.8931 45 56.6224 44.6599 57.1602 44.0545C57.6979 43.4491 58 42.628 58 41.7718V5.22823C58 4.37205 57.6979 3.55094 57.1602 2.94553C56.6224 2.34012 55.8931 2 55.1326 2H4.86738V2.04842Z" stroke="#F6F6F6" stroke-width="2.61423" stroke-linecap="round" stroke-linejoin="round"/>
</svg>
