<svg width="29" height="29" viewBox="0 0 29 29" fill="none" xmlns="http://www.w3.org/2000/svg">
<path d="M20.6198 24.7269C20.7288 24.8422 20.814 24.9779 20.8706 25.1262C20.9271 25.2745 20.9539 25.4325 20.9494 25.5912C20.945 25.7498 20.9093 25.906 20.8444 26.0509C20.7795 26.1958 20.6868 26.3264 20.5714 26.4355C20.4561 26.5445 20.3204 26.6297 20.1721 26.6863C20.0238 26.7428 19.8658 26.7696 19.7071 26.7651C19.5485 26.7607 19.3922 26.725 19.2474 26.6601C19.1025 26.5952 18.9719 26.5025 18.8628 26.3871L8.59201 15.5121C8.3799 15.2878 8.26172 14.9907 8.26172 14.682C8.26172 14.3732 8.3799 14.0762 8.59201 13.8519L18.8628 2.97566C18.9711 2.85777 19.1018 2.76258 19.2472 2.69561C19.3926 2.62863 19.5498 2.59122 19.7098 2.58554C19.8698 2.57985 20.0293 2.60601 20.1791 2.6625C20.3288 2.71898 20.4659 2.80466 20.5823 2.91457C20.6987 3.02447 20.7921 3.1564 20.857 3.3027C20.922 3.44901 20.9573 3.60676 20.9607 3.7668C20.9642 3.92684 20.9359 4.08597 20.8773 4.23497C20.8188 4.38396 20.7313 4.51983 20.6198 4.6347L11.1319 14.682L20.6198 24.7269Z" fill="#F6F6F6"/>
</svg>
