<svg width="24" height="22" viewBox="0 0 24 22" fill="none" xmlns="http://www.w3.org/2000/svg">
<path d="M8.71875 0.687744C7.71562 0.687744 6.84188 1.25774 6.28688 2.03587C5.73187 2.81399 5.4375 3.81899 5.4375 4.90649C5.4375 5.99399 5.73187 6.99993 6.28688 7.77806C6.84188 8.55618 7.71562 9.12525 8.71875 9.12525C9.72188 9.12525 10.5956 8.55524 11.1506 7.77712C11.7056 6.99899 12 5.99399 12 4.90649C12 3.81899 11.7056 2.81306 11.1506 2.03493C10.5956 1.25681 9.72188 0.687744 8.71875 0.687744ZM12 4.90649C12 5.99399 12.2944 6.99993 12.8494 7.77806C13.4044 8.55618 14.2791 9.12525 15.2812 9.12525C16.2844 9.12525 17.1581 8.55524 17.7131 7.77712C18.2681 6.99899 18.5625 5.99399 18.5625 4.90649C18.5625 3.81899 18.2681 2.81306 17.7131 2.03493C17.1581 1.25681 16.2844 0.687744 15.2812 0.687744C14.2781 0.687744 13.4044 1.25774 12.8494 2.03587C12.2944 2.81399 12 3.81899 12 4.90649ZM8.71875 2.56274C9.01125 2.56274 9.33375 2.70899 9.62813 3.11962C9.91875 3.52931 10.125 4.18181 10.125 4.90649C10.125 5.63118 9.91875 6.28462 9.62813 6.69337C9.33375 7.10399 9.01125 7.25024 8.71875 7.25024C8.42625 7.25024 8.10375 7.10399 7.80937 6.69337C7.51875 6.28368 7.3125 5.63118 7.3125 4.90649C7.3125 4.18181 7.51875 3.52837 7.80937 3.11962C8.10375 2.70899 8.42625 2.56274 8.71875 2.56274ZM15.2812 2.56274C15.5737 2.56274 15.8962 2.70899 16.1906 3.11962C16.4812 3.52931 16.6875 4.18181 16.6875 4.90649C16.6875 5.63118 16.4812 6.28462 16.1906 6.69337C15.8962 7.10399 15.5737 7.25024 15.2812 7.25024C14.9888 7.25024 14.6663 7.10399 14.3719 6.69337C14.0813 6.28368 13.875 5.63118 13.875 4.90649C13.875 4.18181 14.0813 3.52837 14.3719 3.11962C14.6663 2.70899 14.9888 2.56274 15.2812 2.56274ZM4.03125 7.25024C3.02813 7.25024 2.15438 7.82024 1.59938 8.59837C1.04438 9.37649 0.75 10.3815 0.75 11.469C0.75 12.5565 1.04438 13.5624 1.59938 14.3406C2.15438 15.1187 3.02813 15.6877 4.03125 15.6877C5.03438 15.6877 5.90812 15.1177 6.46312 14.3396C7.01813 13.5615 7.3125 12.5565 7.3125 11.469C7.3125 10.3815 7.01813 9.37556 6.46312 8.59743C5.90812 7.81931 5.03438 7.25024 4.03125 7.25024ZM19.9688 7.25024C18.9656 7.25024 18.0919 7.82024 17.5369 8.59837C16.9819 9.37649 16.6875 10.3815 16.6875 11.469C16.6875 12.5565 16.9819 13.5624 17.5369 14.3406C18.0919 15.1187 18.9656 15.6877 19.9688 15.6877C20.9719 15.6877 21.8456 15.1177 22.4006 14.3396C22.9556 13.5615 23.25 12.5565 23.25 11.469C23.25 10.3815 22.9556 9.37556 22.4006 8.59743C21.8456 7.81931 20.9719 7.25024 19.9688 7.25024ZM4.03125 9.12525C4.32375 9.12525 4.64625 9.27149 4.94063 9.68212C5.23125 10.0918 5.4375 10.7443 5.4375 11.469C5.4375 12.1937 5.23125 12.8471 4.94063 13.2559C4.64625 13.6665 4.32375 13.8127 4.03125 13.8127C3.73875 13.8127 3.41625 13.6665 3.12188 13.2559C2.83125 12.8471 2.625 12.1937 2.625 11.469C2.625 10.7443 2.83125 10.0909 3.12188 9.68212C3.41625 9.27149 3.73875 9.12525 4.03125 9.12525ZM19.9688 9.12525C20.2612 9.12525 20.5837 9.27149 20.8781 9.68212C21.1687 10.0918 21.375 10.7443 21.375 11.469C21.375 12.1937 21.1687 12.8471 20.8781 13.2559C20.5837 13.6665 20.2612 13.8127 19.9688 13.8127C19.6763 13.8127 19.3538 13.6665 19.0594 13.2559C18.7688 12.8462 18.5625 12.1937 18.5625 11.469C18.5625 10.7443 18.7688 10.0909 19.0594 9.68212C19.3538 9.27149 19.6763 9.12525 19.9688 9.12525ZM12 11.0002C10.7503 11.0002 9.87844 11.8112 9.45 12.5237C9.02437 13.2362 8.76188 13.8287 8.5125 14.0762C8.36906 14.2234 7.46438 14.5637 6.52125 15.0446C6.04969 15.2856 5.57437 15.6071 5.17406 16.0993C4.77094 16.5915 4.49906 17.2712 4.49906 18.0334C4.49906 19.8334 5.98031 21.3146 7.78031 21.3146C8.59219 21.3146 9.43969 21.0521 10.2694 20.8177C11.1028 20.5777 12 20.3752 12 20.3752C12 20.3752 12.8972 20.5777 13.7288 20.8159C14.5594 21.0502 15.4069 21.3127 16.2188 21.3127C18.0187 21.3127 19.5 19.8315 19.5 18.0315C19.5 17.2871 19.2253 16.6065 18.825 16.1284C18.4266 15.6474 17.9466 15.3502 17.4788 15.1018C16.5413 14.6049 15.6197 14.2112 15.4866 14.0762C15.2616 13.854 15.0084 13.2418 14.5772 12.5256C14.1469 11.8065 13.2563 11.0002 12 11.0002ZM12 12.8752C12.6187 12.8752 12.6872 13.0252 12.9656 13.4902C13.2469 13.9543 13.4569 14.7427 14.1375 15.4243C14.9109 16.1931 15.8878 16.3618 16.5994 16.7406C16.9556 16.9299 17.2275 17.1315 17.3906 17.3265C17.5528 17.5206 17.625 17.6977 17.625 18.0296C17.625 18.8171 17.0063 19.4359 16.2188 19.4359C15.9469 19.4359 15.0712 19.2296 14.2556 18.9952C13.44 18.7637 12.765 18.4984 12 18.4984C11.235 18.4984 10.56 18.7637 9.74438 18.9952C8.92875 19.2296 8.05312 19.4359 7.78125 19.4359C6.99375 19.4359 6.375 18.8171 6.375 18.0296C6.375 17.6518 6.45375 17.4577 6.60938 17.2665C6.765 17.0752 7.05187 16.8877 7.40062 16.7106C8.09812 16.3543 9.06938 16.2137 9.86156 15.4215C10.5487 14.7306 10.755 13.9168 11.0334 13.4574C11.3072 12.9981 11.3728 12.8715 11.9991 12.8715L12 12.8752Z" fill="#F6F6F6"/>
</svg>
