<svg width="56" height="56" viewBox="0 0 56 56" fill="none" xmlns="http://www.w3.org/2000/svg">
<path d="M44.1897 33.7176L35.229 29.2376C35.0527 29.1497 34.8563 29.1099 34.6596 29.1222C34.4629 29.1345 34.273 29.1984 34.109 29.3076L29.4494 32.4156C26.8881 31.1873 24.8225 29.1219 23.5942 26.5608L26.7024 21.9016C26.8116 21.7376 26.8755 21.5476 26.8878 21.351C26.9001 21.1544 26.8603 20.9579 26.7724 20.7816L22.2921 11.8216C22.1991 11.6346 22.0557 11.4773 21.8781 11.3674C21.7005 11.2576 21.4957 11.1996 21.2868 11.2C18.6132 11.2 16.0491 12.262 14.1586 14.1524C12.2681 16.0427 11.206 18.6066 11.206 21.28C11.2127 27.5158 13.693 33.4944 18.1028 37.9038C22.5125 42.3132 28.4915 44.7933 34.7278 44.8C37.4014 44.8 39.9655 43.738 41.856 41.8476C43.7465 39.9573 44.8086 37.3934 44.8086 34.72C44.8087 34.5119 44.7509 34.3079 44.6416 34.1309C44.5323 33.9538 44.3758 33.8107 44.1897 33.7176ZM34.7278 42.56C29.0854 42.5541 23.6758 40.3102 19.686 36.3207C15.6962 32.3312 13.4521 26.922 13.4462 21.28C13.4459 19.3178 14.1814 17.4268 15.5076 15.9804C16.8338 14.5341 18.6541 13.6376 20.6091 13.468L24.4734 21.1988L21.3932 25.83C21.2905 25.9828 21.2271 26.1585 21.2086 26.3417C21.19 26.5248 21.2169 26.7097 21.2868 26.88C22.775 30.4177 25.5894 33.2319 29.1274 34.72C29.2978 34.7908 29.4831 34.8184 29.6668 34.8003C29.8505 34.7823 30.0269 34.7191 30.1803 34.6164L34.8118 31.5364L42.5432 35.4004C42.3729 37.3553 41.4756 39.1752 40.0287 40.5007C38.5817 41.8263 36.6902 42.5611 34.7278 42.56ZM28.0073 4.83744e-07C23.1324 -0.000905496 18.3417 1.27077 14.1091 3.68925C9.87645 6.10773 6.34859 9.58921 3.87445 13.7893C1.4003 17.9894 0.0655983 22.7626 0.00235695 27.6368C-0.0608844 32.5109 1.14953 37.3171 3.51387 41.58L0.181618 51.5732C-0.0158293 52.1652 -0.0444831 52.8005 0.0988673 53.4079C0.242218 54.0153 0.551908 54.5708 0.993226 55.012C1.43455 55.4533 1.99005 55.763 2.59748 55.9063C3.20492 56.0497 3.84027 56.021 4.43234 55.8236L14.4263 52.4916C18.1647 54.5629 22.3277 55.751 26.5963 55.9649C30.8649 56.1788 35.1258 55.4128 39.0526 53.7257C42.9794 52.0386 46.4679 49.475 49.2507 46.2314C52.0336 42.9879 54.037 39.1503 55.1075 35.0129C56.1779 30.8755 56.287 26.548 55.4264 22.3619C54.5658 18.1758 52.7583 14.2422 50.1425 10.8626C47.5266 7.4829 44.1717 4.74683 40.3349 2.86397C36.4982 0.981109 32.2812 0.0014337 28.0073 4.83744e-07ZM28.0073 53.76C23.4779 53.7614 19.0281 52.5686 15.1067 50.302C14.9363 50.2039 14.7433 50.1518 14.5467 50.1508C14.4257 50.1507 14.3056 50.1706 14.1911 50.2096L3.72388 53.6984C3.52653 53.7642 3.31474 53.7738 3.11227 53.726C2.90979 53.6782 2.72462 53.575 2.57751 53.4279C2.43041 53.2808 2.32718 53.0956 2.27939 52.8932C2.23161 52.6907 2.24116 52.4789 2.30698 52.2816L5.79604 41.8152C5.84637 41.6647 5.86415 41.5053 5.84822 41.3475C5.83229 41.1896 5.78301 41.037 5.70363 40.8996C2.86339 35.9905 1.72273 30.2813 2.4586 24.6578C3.19448 19.0343 5.76576 13.8109 9.77355 9.79774C13.7813 5.78461 19.0016 3.20618 24.6245 2.46245C30.2473 1.71873 35.9585 2.85127 40.872 5.6844C45.7855 8.51753 49.6265 12.8929 51.7994 18.1316C53.9722 23.3704 54.3553 29.1797 52.8892 34.6584C51.4232 40.1371 48.1899 44.9789 43.691 48.4327C39.1922 51.8864 33.6792 53.759 28.0073 53.76Z" fill="#F6F6F6"/>
</svg>
